<svg width="18" height="21" viewBox="0 0 18 21" fill="none" xmlns="http://www.w3.org/2000/svg">
<path fill-rule="evenodd" clip-rule="evenodd" d="M8.8457 5.56456C8.9589 5.66437 9.1099 5.71005 9.2595 5.68972C10.2606 5.50513 11.1561 4.95209 11.7695 4.13972C12.3659 3.38703 12.7151 2.46848 12.7695 1.50972C12.774 1.35084 12.7041 1.19896 12.5806 1.09896C12.4571 0.998954 12.294 0.962265 12.1395 0.999725C11.1746 1.25168 10.3116 1.79672 9.6695 2.55972C9.0594 3.29679 8.7081 4.2137 8.6695 5.16972C8.6681 5.32066 8.7324 5.46475 8.8457 5.56456ZM16.202 8.22524C15.6104 8.78042 14.6795 9.65401 14.6795 11.5098C14.6656 13.1667 15.5755 14.6936 17.0395 15.4698C17.2206 15.5516 17.3377 15.7311 17.3395 15.9298C17.3395 15.9998 15.2395 20.9998 12.7195 20.9998C12.1678 20.9998 11.8001 20.8259 11.3974 20.6355C10.9095 20.4048 10.37 20.1498 9.3895 20.1498C8.4231 20.1498 7.8823 20.3975 7.38457 20.6255C6.96044 20.8198 6.56765 20.9998 5.96951 20.9998C3.64951 20.9998 0.499506 16.1398 0.499506 11.7498C0.459646 10.5098 0.767956 9.2835 1.38951 8.20973C2.26611 6.72406 3.82712 5.77469 5.54951 5.67972C6.36118 5.67972 7.02562 5.91862 7.6541 6.14459C8.2181 6.34736 8.7531 6.53972 9.3395 6.53972C9.8994 6.53972 10.3512 6.36441 10.8468 6.17208C11.449 5.93846 12.1158 5.67972 13.1195 5.67972C14.9495 5.67972 16.6795 6.99972 16.6795 7.58973C16.6795 7.77719 16.4776 7.96668 16.202 8.22524Z" fill="#001C40"/>
</svg>
