<svg width="11" height="7" viewBox="0 0 11 7" fill="none" xmlns="http://www.w3.org/2000/svg">
<path fill-rule="evenodd" clip-rule="evenodd" d="M10.1035 0.746015C10.0571 0.699452 10.0019 0.662509 9.94117 0.637302C9.88042 0.612096 9.8153 0.599121 9.74953 0.599121C9.68377 0.599121 9.61864 0.612096 9.5579 0.637302C9.49715 0.662509 9.44198 0.699452 9.39553 0.746015L5.74953 4.39302L2.10353 0.746015C2.00965 0.652128 1.88231 0.599383 1.74953 0.599383C1.61676 0.599383 1.48942 0.652128 1.39553 0.746015C1.30165 0.839902 1.2489 0.967239 1.2489 1.10001C1.2489 1.23279 1.30165 1.36013 1.39553 1.45401L5.39553 5.45401C5.44198 5.50058 5.49715 5.53752 5.5579 5.56273C5.61864 5.58793 5.68377 5.60091 5.74953 5.60091C5.8153 5.60091 5.88042 5.58793 5.94117 5.56273C6.00191 5.53752 6.05709 5.50058 6.10353 5.45401L10.1035 1.45401C10.1501 1.40757 10.187 1.35239 10.2122 1.29165C10.2375 1.2309 10.2504 1.16578 10.2504 1.10001C10.2504 1.03425 10.2375 0.969126 10.2122 0.908381C10.187 0.847636 10.1501 0.792461 10.1035 0.746015Z" fill="#322D2A"/>
</svg>
