<svg width="26" height="25" viewBox="0 0 26 25" fill="none" xmlns="http://www.w3.org/2000/svg">
<path d="M23.5475 6.9483H17.3663" stroke="#141415" stroke-width="1.85437" stroke-miterlimit="10" stroke-linecap="round" stroke-linejoin="round"/>
<path d="M7.06436 6.9483H2.94354" stroke="#141415" stroke-width="1.85437" stroke-miterlimit="10" stroke-linecap="round" stroke-linejoin="round"/>
<path d="M11.1845 10.5548C13.1758 10.5548 14.7902 8.94049 14.7902 6.9491C14.7902 4.95772 13.1758 3.34338 11.1845 3.34338C9.19307 3.34338 7.57874 4.95772 7.57874 6.9491C7.57874 8.94049 9.19307 10.5548 11.1845 10.5548Z" stroke="#141415" stroke-width="1.85437" stroke-miterlimit="10" stroke-linecap="round" stroke-linejoin="round"/>
<path d="M23.5478 18.2822H19.427" stroke="#141415" stroke-width="1.85437" stroke-miterlimit="10" stroke-linecap="round" stroke-linejoin="round"/>
<path d="M9.12477 18.2822H2.94354" stroke="#141415" stroke-width="1.85437" stroke-miterlimit="10" stroke-linecap="round" stroke-linejoin="round"/>
<path d="M15.3059 21.8865C17.2973 21.8865 18.9116 20.2722 18.9116 18.2808C18.9116 16.2894 17.2973 14.6751 15.3059 14.6751C13.3145 14.6751 11.7002 16.2894 11.7002 18.2808C11.7002 20.2722 13.3145 21.8865 15.3059 21.8865Z" stroke="#141415" stroke-width="1.85437" stroke-miterlimit="10" stroke-linecap="round" stroke-linejoin="round"/>
</svg>
