<svg width="31" height="31" viewBox="0 0 31 31" fill="none" xmlns="http://www.w3.org/2000/svg">
<path d="M16.2687 25.3733L16.2687 25.3732L16.2597 25.3764C16.1796 25.4047 16.0137 25.4348 15.8018 25.4348C15.5899 25.4348 15.424 25.4047 15.3439 25.3764L15.3439 25.3764L15.3349 25.3733C13.6754 24.8068 10.9023 23.3012 8.55644 20.8977C6.22173 18.5055 4.36652 15.2859 4.36652 11.2674C4.36652 7.95516 7.03398 5.284 10.3129 5.284C12.2556 5.284 13.9753 6.22169 15.0574 7.67881C15.2323 7.91434 15.5084 8.05319 15.8018 8.05319C16.0952 8.05319 16.3712 7.91434 16.5462 7.67881C17.6277 6.22245 19.3595 5.284 21.2907 5.284C24.5696 5.284 27.2371 7.95516 27.2371 11.2674C27.2371 15.2859 25.3819 18.5055 23.0471 20.8977C20.7013 23.3012 17.9282 24.8068 16.2687 25.3733Z" stroke="#A2A2A2" stroke-width="1.85437" stroke-linecap="round" stroke-linejoin="round"/>
</svg>
