<svg width="196" height="39" viewBox="0 0 196 39" fill="none" xmlns="http://www.w3.org/2000/svg">
<path d="M6.60004 11.9394C7.81752 12.3245 8.81273 13.331 9.20419 14.5637C9.33356 14.969 9.35679 15.3574 9.38001 15.7019C9.39328 15.8911 9.40323 16.0701 9.42977 16.239C9.49612 16.6544 9.66198 17.0529 9.91411 17.3907C10.4183 18.0729 11.2046 18.4478 12.0671 18.4208C12.9296 18.3938 13.6893 17.9682 14.1504 17.2522C14.648 16.4821 14.6115 15.5331 14.4987 14.6245C14.376 13.6349 14.1006 12.6825 13.6793 11.7875C12.8301 9.98051 11.4003 8.47753 9.65867 7.54535C7.93031 6.6233 5.90339 6.28894 3.95609 6.60642C2.63909 6.8192 1.38843 7.31906 0.333504 8.03171C0.243935 8.78488 0.247252 9.60561 0.356726 10.504C1.72017 9.15641 3.51156 8.41336 5.41905 8.41336C7.35972 8.41336 9.18096 9.18342 10.551 10.5783C11.9244 11.9766 12.6808 13.8342 12.6808 15.81C12.6808 16.2018 12.369 16.5193 11.9842 16.5193C11.5993 16.5193 11.2875 16.2018 11.2875 15.81C11.2875 14.2125 10.6771 12.7129 9.56578 11.5814C8.45778 10.4534 6.98486 9.8319 5.41573 9.8319C3.84661 9.8319 2.37369 10.4534 1.26569 11.5848C1.05669 11.7976 0.864285 12.0239 0.691781 12.2637C0.724955 12.3954 0.758129 12.5305 0.797938 12.6656C1.0202 13.4627 1.26901 14.2294 1.53771 14.9589C1.74007 14.0132 2.24432 13.1823 2.99073 12.598C4.01248 11.7942 5.36266 11.551 6.60004 11.9428V11.9394Z" fill="#122241"/>
<path d="M15.1887 5.84638C17.3052 8.00458 18.6521 10.7336 19.09 13.6889C19.5378 10.7572 20.878 8.05187 22.9779 5.91055C25.5887 3.25924 29.0587 1.79342 32.7509 1.79004C32.7841 1.79004 32.8173 1.79004 32.8505 1.79004C32.8306 1.78329 32.814 1.77315 32.7941 1.7664C28.8132 0.0101154 24.1457 1.19561 21.4519 4.65751C21.0472 5.17764 20.6724 5.72817 20.3307 6.30234C20.1283 6.64346 19.9326 7.00147 19.7534 7.36286C19.7534 7.36286 19.7534 7.36962 19.7501 7.36962C19.7369 7.39664 19.7203 7.42366 19.7037 7.4473C19.7037 7.4473 19.7004 7.45405 19.697 7.45743C19.6838 7.4777 19.6672 7.49796 19.6473 7.51823C19.6407 7.52498 19.6373 7.53174 19.6307 7.53511C19.6141 7.552 19.5942 7.57227 19.5743 7.58578C19.5743 7.58578 19.5677 7.59253 19.5644 7.59253C19.5444 7.60942 19.5212 7.6263 19.4947 7.63981C19.4881 7.64319 19.4781 7.64995 19.4715 7.65332C19.4615 7.66008 19.4516 7.66346 19.4449 7.67021C19.4383 7.67359 19.4317 7.67697 19.4217 7.68034C19.4118 7.6871 19.3985 7.69048 19.3885 7.69723C19.3719 7.70399 19.352 7.71074 19.3355 7.7175C19.3255 7.7175 19.3155 7.72425 19.3056 7.72763C19.2857 7.73438 19.2625 7.73776 19.2426 7.74114C19.2359 7.74114 19.226 7.74114 19.2193 7.74452C19.1895 7.74789 19.1596 7.75127 19.1298 7.75127C19.0999 7.75127 19.0701 7.75127 19.0402 7.74452C19.0336 7.74452 19.0236 7.74452 19.017 7.74114C18.9971 7.73776 18.9739 7.73438 18.954 7.72763C18.944 7.72763 18.9341 7.72087 18.9241 7.7175C18.9075 7.71074 18.8876 7.70736 18.871 7.69723C18.8578 7.69385 18.8478 7.6871 18.8378 7.68034C18.8312 7.67697 18.8246 7.67359 18.8146 7.67021C18.8047 7.66683 18.7947 7.66008 18.7881 7.65332C18.7815 7.64995 18.7715 7.64319 18.7649 7.63981C18.7416 7.6263 18.7184 7.60942 18.6952 7.59253C18.6952 7.59253 18.6886 7.58915 18.6886 7.58578C18.6687 7.56889 18.6488 7.552 18.6322 7.53173C18.6255 7.52498 18.6222 7.5216 18.6156 7.51485C18.599 7.49458 18.5824 7.47432 18.5658 7.45405C18.5658 7.45405 18.5625 7.4473 18.5592 7.4473C18.5426 7.42366 18.526 7.39664 18.5127 7.36962C18.5127 7.36962 18.5127 7.36624 18.5094 7.36286C18.3303 7.00147 18.1346 6.64346 17.9322 6.30234C16.3896 3.71182 14.1869 1.64819 11.5363 0.303955C9.49941 0.499848 7.3398 0.918654 5.46216 1.72925C9.13782 1.74613 12.5879 3.20858 15.1854 5.84638H15.1887Z" fill="#122241"/>
<path d="M23.7211 29.1545C23.7841 29.1241 23.8505 29.0937 23.9135 29.0633C25.2172 28.4114 26.6769 27.5502 28.1598 26.4255C27.5096 26.5505 26.8494 26.6146 26.1892 26.6146C24.7661 26.6146 23.3496 26.3275 22.0425 25.7601C21.5482 25.544 21.0639 25.2873 20.6061 24.9968C20.281 24.7908 20.1815 24.3517 20.3838 24.0207C20.5862 23.6897 21.0174 23.5884 21.3425 23.7944C21.7406 24.0478 22.1586 24.2707 22.5866 24.4564C24.3979 25.2434 26.4579 25.4123 28.3853 24.9293C29.427 24.6692 30.4222 24.2099 31.3113 23.5952C32.6051 22.2205 33.8391 20.6027 34.9073 18.6978C35.1528 17.9075 35.2988 17.0868 35.3319 16.2559C35.3717 15.2461 35.0765 14.4524 34.4595 13.8985C33.8391 13.3412 32.9501 13.1217 32.1406 13.3175C31.3279 13.5168 30.6345 14.1383 30.336 14.9354C30.2265 15.2258 30.2033 15.5332 30.18 15.8912C30.1701 16.0297 30.1601 16.1715 30.1436 16.3167C30.0739 16.9652 29.8516 17.5934 29.4933 18.1338C28.7735 19.2214 27.5626 19.8833 26.2489 19.9036C24.9353 19.9239 23.7045 19.3024 22.9515 18.2385C22.1288 17.0767 22.1553 15.7189 22.2714 14.6652C22.3975 13.5101 22.706 12.3921 23.187 11.3451C24.149 9.24432 25.7878 7.48466 27.7982 6.39374C29.7952 5.30957 32.1373 4.90765 34.3964 5.26566C35.4481 5.43116 36.4632 5.75877 37.3987 6.21811C36.994 5.15421 36.3603 4.27269 35.5741 3.53978C34.6552 3.32362 33.7131 3.21216 32.7543 3.21216C29.4336 3.21216 26.312 4.52937 23.9633 6.91724C21.6112 9.31187 20.3175 12.4934 20.3175 15.8743C20.3175 17.4718 20.9279 18.9748 22.0359 20.1029C23.1439 21.231 24.6201 21.8524 26.1892 21.8524C27.755 21.8524 29.2313 21.2276 30.3393 20.1029C31.4473 18.9748 32.061 17.4718 32.061 15.8743C32.061 15.4825 32.3728 15.165 32.7577 15.165C33.1425 15.165 33.4543 15.4825 33.4543 15.8743C33.4543 17.8501 32.6979 19.7077 31.3245 21.106C29.9545 22.5009 28.1299 23.2709 26.1926 23.2709C24.2519 23.2709 22.4273 22.5009 21.0539 21.1026C20.0421 20.0725 19.3687 18.7924 19.0834 17.3975C18.7915 18.7654 18.1214 20.0218 17.1261 21.0384C15.7561 22.4367 13.9315 23.2068 11.9875 23.2068C10.0469 23.2068 8.22561 22.4367 6.85553 21.0418C5.48213 19.6435 4.72577 17.7859 4.72577 15.8101C4.72577 15.4183 5.0376 15.1008 5.42242 15.1008C5.80724 15.1008 6.11907 15.4183 6.11907 15.8101C6.11907 17.4077 6.72947 18.9073 7.84079 20.0387C8.9488 21.1668 10.4217 21.7882 11.9908 21.7882C13.56 21.7882 15.0329 21.1668 16.1442 20.0387C17.2522 18.9106 17.8626 17.4077 17.8626 15.8101C17.8626 12.4293 16.5655 9.2477 14.2168 6.85307C11.8714 4.46858 8.74976 3.15137 5.42574 3.15137C4.50351 3.15137 3.59454 3.25269 2.70548 3.45872C1.89272 4.18825 1.23588 5.07315 0.814575 6.1438C1.73017 5.69798 2.72207 5.3805 3.74714 5.21162C5.98969 4.84686 8.32513 5.23189 10.3156 6.29579C12.3193 7.36645 13.9647 9.09909 14.9433 11.1796C15.4276 12.2097 15.7461 13.3108 15.8888 14.4524C16.0281 15.5771 16.0712 16.8808 15.3248 18.0359C14.6215 19.1234 13.4239 19.7989 12.1202 19.8428C10.8165 19.8833 9.5791 19.2889 8.80947 18.2486C8.42465 17.7285 8.1659 17.1138 8.06306 16.4721C8.02657 16.2357 8.00998 16.0128 7.99671 15.7966C7.9768 15.4994 7.96022 15.2393 7.88724 15.0029C7.63511 14.2024 6.98491 13.5472 6.19537 13.2973C5.40252 13.0473 4.50351 13.2095 3.84666 13.7228C3.19314 14.2362 2.82491 15.0468 2.83486 15.952C2.84813 16.9179 3.014 17.8737 3.31256 18.7857C4.32105 20.5622 5.47218 22.0922 6.67971 23.406C7.53559 24.0275 8.491 24.5003 9.49948 24.7908C11.397 25.3312 13.4505 25.2366 15.2817 24.5206C15.7163 24.3517 16.1442 24.1423 16.5489 23.9059C16.8807 23.71 17.3086 23.8282 17.501 24.166C17.6934 24.5037 17.5773 24.9394 17.2456 25.1353C16.7778 25.4089 16.2868 25.6487 15.7826 25.8446C14.5751 26.3174 13.2813 26.5572 11.9875 26.5572C11.2876 26.5572 10.5876 26.4863 9.90089 26.3478C11.4236 27.5164 12.9263 28.4047 14.2632 29.0734C14.323 29.1038 14.3794 29.1308 14.4391 29.1579C15.6599 28.4554 16.7911 27.5806 17.8029 26.5505C18.0782 26.2668 18.3536 25.9695 18.6123 25.6622C18.8645 25.365 19.3023 25.3312 19.5943 25.5879C19.6938 25.6757 19.7635 25.7838 19.8 25.902C20.0123 26.1485 20.2345 26.3883 20.4568 26.6146C21.4421 27.6144 22.5401 28.4689 23.7244 29.1612L23.7211 29.1545Z" fill="#122241"/>
<path d="M19.4682 27.6074C19.3421 27.479 19.2194 27.3473 19.0966 27.2156C18.9938 27.327 18.8909 27.4351 18.7848 27.5432C17.9554 28.3876 17.0531 29.134 16.0911 29.7791C18.045 30.3431 20.1151 30.3465 22.0723 29.7791C21.1434 29.1475 20.2743 28.4247 19.4715 27.6074H19.4682Z" fill="#122241"/>
<path d="M28.4517 7.63988C26.7067 8.58895 25.2836 10.1156 24.4476 11.9394C24.0329 12.8479 23.7642 13.8173 23.6548 14.8204C23.5221 16.0396 23.6448 16.7894 24.0794 17.4075C24.5637 18.0931 25.3267 18.4816 26.1793 18.4816C26.1959 18.4816 26.2091 18.4816 26.2257 18.4816C27.0949 18.468 27.8645 18.0492 28.3356 17.3366C28.5678 16.9853 28.7138 16.58 28.7569 16.1579C28.7702 16.0329 28.7801 15.9079 28.7901 15.7796C28.8199 15.3506 28.8531 14.9048 29.0356 14.4218C29.4967 13.1958 30.5615 12.24 31.8155 11.9326C33.0761 11.6219 34.4064 11.9563 35.3784 12.8243C36.0153 13.3917 36.4333 14.1314 36.6191 14.996C36.8977 14.2496 37.1499 13.4728 37.3755 12.6588C37.4086 12.5406 37.4385 12.4224 37.4683 12.3042C37.2992 12.0711 37.1101 11.8516 36.9044 11.6422C35.7964 10.5141 34.3201 9.88927 32.751 9.88927C31.1852 9.88927 29.709 10.5141 28.601 11.6388C27.493 12.7669 26.8793 14.2698 26.8793 15.8674C26.8793 16.2592 26.5674 16.5767 26.1826 16.5767C25.7978 16.5767 25.4859 16.2592 25.4859 15.8674C25.4859 13.8916 26.2423 12.034 27.6157 10.6357C28.9858 9.2408 30.8104 8.47074 32.7477 8.47074C34.6519 8.47074 36.4399 9.2104 37.8034 10.5546C37.9195 9.66298 37.9261 8.84226 37.8432 8.09584C36.7783 7.37306 35.5111 6.86982 34.1775 6.66041C32.2136 6.34969 30.18 6.69757 28.4484 7.6365L28.4517 7.63988Z" fill="#122241"/>
<path d="M48.7938 9.24749H56.1451V30.208H48.7938V9.24749ZM54.9542 1.2564C55.6177 1.86434 55.9494 2.6648 55.9494 3.66453C55.9494 4.15089 55.8632 4.59671 55.6907 4.99863C55.5182 5.40393 55.2793 5.75519 54.9741 6.04902C54.6689 6.34624 54.2974 6.56915 53.8628 6.71776C53.4249 6.86637 52.9538 6.94068 52.4529 6.94068C51.4444 6.94068 50.6117 6.64346 49.9483 6.04902C49.2848 5.45459 48.9564 4.66089 48.9564 3.66116C48.9564 3.14778 49.0426 2.68507 49.2151 2.26626C49.3876 1.84746 49.6265 1.4962 49.9317 1.21587C50.2369 0.932162 50.6084 0.716004 51.043 0.567395C51.4809 0.418787 51.952 0.344482 52.4529 0.344482C53.4581 0.344482 54.294 0.648455 54.9575 1.2564H54.9542Z" fill="#122241"/>
<path d="M67.7824 3.0564C70.2207 3.0564 72.4002 3.36037 74.321 3.96831C76.2418 4.57626 77.864 5.46453 79.1909 6.63989C80.5146 7.81187 81.5297 9.23716 82.2296 10.909C82.9329 12.5809 83.2813 14.4824 83.2813 16.6135C83.2813 18.7447 82.9296 20.6868 82.2296 22.3586C81.5264 24.0305 80.5146 25.4524 79.1909 26.6277C77.8673 27.7997 76.2418 28.6914 74.321 29.2993C72.4002 29.9073 70.2207 30.2112 67.7824 30.2112H57.6478V3.0564H67.7824ZM65.8351 22.8416H68.5388C69.597 22.8416 70.5392 22.7065 71.3619 22.4363C72.1813 22.1661 72.8647 21.7676 73.4087 21.2441C73.9528 20.7172 74.3674 20.0721 74.6594 19.302C74.9513 18.532 75.0973 17.6369 75.0973 16.6102C75.0973 14.5871 74.5399 13.0503 73.4286 11.9966C72.3173 10.9462 70.6851 10.4193 68.5388 10.4193H65.8351V22.8416Z" fill="#122241"/>
<path d="M92.3974 10.757C91.3259 11.1894 90.4103 11.7872 89.654 12.5572C88.8976 13.3273 88.3104 14.2561 87.8858 15.3504C87.4612 16.4413 87.2489 17.6505 87.2489 18.971C87.2489 20.2916 87.4612 21.494 87.8858 22.5714C88.3104 23.6522 88.8976 24.581 89.654 25.3646C90.4103 26.1482 91.316 26.7527 92.3775 27.185C93.4358 27.6174 94.6168 27.8335 95.9139 27.8335C97.211 27.8335 98.4981 27.6038 99.6891 27.1445C100.88 26.6852 101.928 26.0266 102.827 25.1619L104.018 27.0635C102.96 28.0902 101.733 28.8704 100.343 29.4108C98.9526 29.9512 97.4598 30.2214 95.8707 30.2214C94.2817 30.2214 92.7723 29.9444 91.4188 29.3905C90.0686 28.8366 88.9076 28.0699 87.9422 27.0837C86.9735 26.1009 86.2205 24.9188 85.6764 23.5441C85.1324 22.1695 84.8604 20.6598 84.8604 19.0116C84.8604 17.3634 85.1324 15.857 85.6764 14.479C86.2205 13.1044 86.9802 11.9223 87.9621 10.9394C88.9407 9.95658 90.1151 9.19327 91.4785 8.65288C92.842 8.11248 94.3447 7.84229 95.9902 7.84229C97.3403 7.84229 98.601 8.03142 99.7654 8.4097C100.93 8.78798 101.971 9.3385 102.884 10.068C103.796 10.7976 104.572 11.6723 105.209 12.6991C105.846 13.7258 106.307 14.8978 106.599 16.2184L86.7678 22.3688L86.2901 20.4267L105.086 14.6006L104.29 16.1779C104.051 15.2626 103.673 14.4317 103.159 13.6887C102.642 12.9456 102.018 12.3141 101.291 11.7872C100.562 11.2603 99.7421 10.8516 98.8265 10.5544C97.9143 10.2572 96.9389 10.1086 95.9072 10.1086C94.6367 10.1086 93.4623 10.3247 92.3908 10.757H92.3974Z" fill="#122241"/>
<path d="M129.048 21.2981C128.836 22.5917 128.418 23.7805 127.797 24.8579C127.174 25.9387 126.387 26.8743 125.432 27.6714C124.477 28.4685 123.392 29.0865 122.174 29.5324C120.953 29.9782 119.643 30.2011 118.24 30.2011C116.757 30.2011 115.384 29.9377 114.126 29.4108C112.869 28.8839 111.788 28.151 110.889 27.2053C109.986 26.263 109.286 25.1416 108.782 23.8481C108.278 22.5545 108.026 21.1225 108.026 19.5587C108.026 17.9139 108.304 16.3974 108.862 15.0059C109.419 13.6177 110.199 12.4221 111.207 11.4258C112.212 10.4294 113.42 9.64583 114.823 9.07842C116.226 8.511 117.765 8.22729 119.434 8.22729C121.103 8.22729 122.619 8.511 123.986 9.07842C125.349 9.64583 126.517 10.4598 127.482 11.5271C128.447 12.5944 129.191 13.8744 129.708 15.3706C130.226 16.8669 130.484 18.5623 130.484 20.447V29.8735H128.099V22.6727L127.94 21.9432V20.1227C127.94 18.667 127.741 17.3566 127.343 16.1981C126.945 15.0396 126.374 14.0534 125.634 13.2462C124.891 12.4356 123.999 11.8108 122.951 11.365C121.902 10.9191 120.718 10.6962 119.394 10.6962C118.071 10.6962 116.903 10.9191 115.818 11.365C114.73 11.8108 113.798 12.4154 113.015 13.1854C112.232 13.9555 111.632 14.8843 111.207 15.9786C110.782 17.0695 110.57 18.2786 110.57 19.5992C110.57 20.8388 110.769 21.9736 111.167 22.997C111.565 24.0237 112.123 24.8917 112.836 25.6077C113.552 26.3238 114.418 26.8743 115.44 27.2661C116.458 27.6579 117.593 27.8538 118.837 27.8538C120.081 27.8538 121.335 27.6376 122.433 27.2053C123.531 26.773 124.52 26.1414 125.392 25.3038C126.268 24.4695 127.014 23.4495 127.638 22.2505C128.262 21.0515 128.729 19.6668 129.048 18.103V21.2981Z" fill="#122241"/>
<path d="M131.891 1.34741H134.435V29.5493H131.891V1.34741Z" fill="#122241"/>
<path d="M135.925 38.6854V20.3559C135.925 18.4949 136.184 16.8096 136.701 15.2998C137.219 13.7901 137.958 12.5033 138.927 11.436C139.892 10.3721 141.06 9.55477 142.424 8.98735C143.787 8.41994 145.306 8.13623 146.975 8.13623C148.644 8.13623 150.213 8.41994 151.606 8.98735C152.996 9.55477 154.197 10.335 155.202 11.3347C156.207 12.3344 156.99 13.5334 157.548 14.9351C158.105 16.3367 158.384 17.8904 158.384 19.5892C158.384 21.153 158.131 22.5918 157.627 23.8989C157.123 25.2059 156.43 26.3205 155.541 27.2358C154.651 28.1545 153.587 28.8739 152.343 29.4008C151.099 29.9277 149.719 30.1911 148.209 30.1911C146.859 30.1911 145.585 29.9817 144.394 29.5629C143.203 29.1441 142.135 28.5598 141.196 27.8032C140.254 27.05 139.461 26.1584 138.811 25.1316C138.161 24.1083 137.72 22.9734 137.481 21.7339L137.72 19.1839C138.383 21.9095 139.561 24.0205 141.256 25.5167C142.951 27.0129 145.031 27.7627 147.496 27.7627C148.766 27.7627 149.914 27.5668 150.933 27.175C151.951 26.7832 152.827 26.2259 153.557 25.4964C154.287 24.7669 154.847 23.8989 155.245 22.8856C155.643 21.8758 155.842 20.7342 155.842 19.4676C155.842 18.2011 155.63 16.9447 155.205 15.8673C154.781 14.7898 154.177 13.8644 153.398 13.0944C152.615 12.3243 151.689 11.7197 150.614 11.2739C149.543 10.8281 148.355 10.6052 147.058 10.6052C145.761 10.6052 144.54 10.8281 143.482 11.2739C142.42 11.7197 141.521 12.3446 140.778 13.1551C140.035 13.9657 139.468 14.9553 139.07 16.1273C138.672 17.2993 138.473 18.603 138.473 20.0317V38.6854H135.928H135.925Z" fill="#122241"/>
<path d="M167.42 10.7268C166.349 11.1591 165.433 11.7569 164.677 12.527C163.92 13.297 163.333 14.2258 162.908 15.3201C162.484 16.411 162.272 17.6202 162.272 18.9408C162.272 20.2614 162.484 21.4637 162.908 22.5411C163.333 23.6219 163.92 24.5507 164.677 25.3343C165.433 26.1179 166.339 26.7225 167.4 27.1548C168.458 27.5871 169.639 27.8032 170.937 27.8032C172.234 27.8032 173.521 27.5736 174.712 27.1142C175.903 26.6549 176.951 25.9963 177.85 25.1317L179.041 27.0332C177.983 28.0599 176.755 28.8401 175.365 29.3805C173.975 29.9209 172.482 30.1911 170.893 30.1911C169.304 30.1911 167.795 29.9142 166.441 29.3603C165.091 28.8063 163.93 28.0397 162.965 27.0534C161.996 26.0706 161.243 24.8885 160.699 23.5139C160.155 22.1392 159.883 20.6295 159.883 18.9813C159.883 17.3331 160.155 15.8267 160.699 14.4487C161.243 13.0741 162.003 11.892 162.985 10.9091C163.963 9.92631 165.138 9.163 166.501 8.6226C167.865 8.08221 169.367 7.81201 171.013 7.81201C172.363 7.81201 173.624 8.00115 174.788 8.37943C175.952 8.7577 176.994 9.30823 177.906 10.0378C178.819 10.7673 179.595 11.6421 180.232 12.6688C180.869 13.6956 181.33 14.8675 181.622 16.1881L161.79 22.3385L161.313 20.3965L180.109 14.5703L179.313 16.1476C179.074 15.2323 178.696 14.4014 178.182 13.6584C177.664 12.9154 177.041 12.2838 176.314 11.7569C175.584 11.23 174.765 10.8213 173.849 10.5241C172.937 10.2269 171.962 10.0783 170.93 10.0783C169.659 10.0783 168.485 10.2945 167.413 10.7268H167.42Z" fill="#122241"/>
<path d="M185.576 18.6064C185.576 21.5752 186.253 23.8448 187.603 25.4255C188.953 27.0027 190.901 27.7931 193.445 27.7931C193.949 27.7931 194.404 27.7525 194.815 27.6715C195.226 27.5904 195.605 27.4823 195.946 27.3472V29.7757C195.469 29.9378 194.998 30.0526 194.536 30.1201C194.072 30.1877 193.561 30.2215 193.007 30.2215C189.882 30.2215 187.437 29.2049 185.676 27.1649C183.914 25.1283 183.032 22.2878 183.032 18.6469V3.30981H185.576V18.603V18.6064ZM184.465 8.53138H195.87V10.8382H184.465V8.53138Z" fill="#122241"/>
</svg>
