<svg width="22" height="23" viewBox="0 0 22 23" fill="none" xmlns="http://www.w3.org/2000/svg">
<path d="M21.6458 20.4193L17.6702 16.4729C19.2134 14.5473 19.9607 12.1032 19.7585 9.64309C19.5563 7.18301 18.42 4.89395 16.5831 3.2466C14.7462 1.59925 12.3485 0.718811 9.88291 0.78633C7.41732 0.853849 5.07128 1.86419 3.32719 3.6096C1.58309 5.35502 0.573521 7.70284 0.506054 10.1703C0.438586 12.6378 1.31835 15.0373 2.96446 16.8756C4.61056 18.7138 6.89788 19.8511 9.35609 20.0534C11.8143 20.2558 14.2566 19.5079 16.1807 17.9635L20.1241 21.9099C20.2237 22.0105 20.3423 22.0902 20.4729 22.1447C20.6034 22.1991 20.7435 22.2272 20.885 22.2272C21.0264 22.2272 21.1665 22.1991 21.2971 22.1447C21.4276 22.0902 21.5462 22.0105 21.6458 21.9099C21.8389 21.71 21.9469 21.4427 21.9469 21.1646C21.9469 20.8865 21.8389 20.6193 21.6458 20.4193ZM10.1691 17.9635C8.68553 17.9635 7.23527 17.5233 6.00172 16.6984C4.76817 15.8735 3.80674 14.7011 3.239 13.3294C2.67126 11.9578 2.52271 10.4484 2.81214 8.99222C3.10157 7.53604 3.81598 6.19846 4.86503 5.14862C5.91408 4.09877 7.25064 3.38382 8.70571 3.09417C10.1608 2.80452 11.669 2.95318 13.0397 3.52135C14.4103 4.08952 15.5818 5.05168 16.406 6.28617C17.2303 7.52066 17.6702 8.97202 17.6702 10.4567C17.6702 12.4476 16.8799 14.357 15.4732 15.7648C14.0665 17.1726 12.1585 17.9635 10.1691 17.9635Z" fill="#00171F"/>
</svg>
